<svg id="Layer_1" data-name="Layer 1" xmlns="http://www.w3.org/2000/svg" viewBox="0 0 409.87 92.1"><defs><style>.cls-1{fill:#006282;}</style></defs><path class="cls-1" d="M0,30.82H15.23c17,0,27.19,7.9,27.19,21.34S32.22,73.5,15.23,73.5H0ZM2.19,71.94h13c15.6,0,25-7.32,25-19.66s-9.19-19.9-25-19.9h-13Z"/><path class="cls-1" d="M53.28,92.1H51.1V15.77h2.18Z"/><path class="cls-1" d="M93,70.73l24.85-39.91h3.43V73.5H119.1V32.55H119l-25.37,41H92.35L66.91,32.55h-.14v41H64.58V30.82h3.5Z"/><path class="cls-1" d="M162.18,30.82v1.56H134.77V51.24h27.41v1.55H134.77V71.94h27.41V73.5H132.59V30.82Z"/><path class="cls-1" d="M212.69,71.19h.15V30.82H215V73.5h-2.77L174.79,32.55h-.14v41h-2.19V30.82h3.28Z"/><path class="cls-1" d="M222.1,73.5l29.37-41.12H221.08V30.82h34L225.67,71.94h30.9V73.5Z"/><path class="cls-1" d="M266.81,92.1h-2.19V15.77h2.19Z"/><path class="cls-1" d="M367.37,71.19h.15V30.82h2.19V73.5h-2.77L329.47,32.55h-.14v41h-2.19V30.82h3.28Z"/><path class="cls-1" d="M380.79,62.71c1.31,8.19,9.18,10,13.33,10,6.78,0,13.56-4,13.56-10.15,0-7.84-8.6-9.46-13.77-10.55-4.74-.93-14.14-2.71-14.14-10.73-.22-7.09,6.85-11.13,14.65-11.13,6.34,0,12.75,2.94,13.92,9.92h-2.19c-.8-3.4-3.2-8.36-11.88-8.36C387.42,31.69,382,35.38,382,41c-.07,6.75,7.07,8.42,14.51,9.92,2.62.58,13.41,2.14,13.41,11.42,0,7-7.65,11.94-15.67,11.94-6.49,0-14.87-3.46-15.6-11.54Z"/><path class="cls-1" d="M296.77,30.62a21.37,21.37,0,0,1,21.76,21.71,21.76,21.76,0,0,1-43.52,0A21.37,21.37,0,0,1,296.77,30.62Zm0,41.89a19.8,19.8,0,0,0,20.06-20.18,20.06,20.06,0,1,0-40.12,0A19.8,19.8,0,0,0,296.77,72.51Z"/><path class="cls-1" d="M270.79,4.53a4.6,4.6,0,0,1-4.68,4.53,4.53,4.53,0,1,1,0-9.06A4.6,4.6,0,0,1,270.79,4.53Z"/><path class="cls-1" d="M56.79,4.66a4.6,4.6,0,0,1-4.68,4.53,4.53,4.53,0,1,1,0-9.06A4.6,4.6,0,0,1,56.79,4.66Z"/></svg>