<?xml version="1.0" encoding="UTF-8"?><svg id="a" xmlns="http://www.w3.org/2000/svg" viewBox="0 0 409.87 92.1"><defs><style>.b{fill:#0090ce;}.c{fill:#1d1d1b;}</style></defs><path class="c" d="M0,30.82H15.23c16.98,0,27.19,7.9,27.19,21.34s-10.2,21.34-27.19,21.34H0V30.82Zm2.19,41.12H15.23c15.6,0,25-7.32,25-19.66s-9.18-19.89-25-19.89H2.19v39.56Z"/><path class="c" d="M53.28,92.1h-2.19V15.77h2.19V92.1Z"/><path class="c" d="M93.01,70.73l24.86-39.9h3.43v42.67h-2.19V32.55h-.15l-25.37,40.94h-1.24l-25.44-40.94h-.15v40.94h-2.19V30.82h3.5l24.93,39.9Z"/><path class="c" d="M162.18,30.82v1.56h-27.41v18.86h27.41v1.56h-27.41v19.15h27.41v1.56h-29.59V30.82h29.59Z"/><path class="c" d="M212.69,71.19h.15V30.82h2.19v42.67h-2.77l-37.47-40.94h-.15v40.94h-2.19V30.82h3.28l36.96,40.37Z"/><path class="c" d="M222.1,73.5l29.38-41.12h-30.4v-1.56h33.97l-29.37,41.12h30.91v1.56h-34.48Z"/><path class="c" d="M266.81,92.1h-2.19V15.77h2.19V92.1Z"/><path class="c" d="M367.37,71.19h.15V30.82h2.19v42.67h-2.77l-37.47-40.94h-.15v40.94h-2.19V30.82h3.28l36.96,40.37Z"/><path class="c" d="M380.79,62.71c1.31,8.19,9.18,9.98,13.34,9.98,6.78,0,13.56-4.04,13.56-10.15,0-7.84-8.6-9.46-13.78-10.55-4.74-.92-14.14-2.71-14.14-10.73-.22-7.09,6.85-11.13,14.65-11.13,6.34,0,12.76,2.94,13.92,9.92h-2.19c-.8-3.4-3.21-8.36-11.88-8.36-6.85,0-12.32,3.69-12.32,9.28-.07,6.75,7.07,8.42,14.51,9.92,2.62,.58,13.41,2.13,13.41,11.42,0,7.03-7.65,11.94-15.67,11.94-6.49,0-14.87-3.46-15.6-11.53h2.19Z"/><path class="c" d="M296.77,30.62c12.01,0,21.76,9.12,21.76,21.71s-9.75,21.71-21.76,21.71-21.76-9.12-21.76-21.71,9.75-21.71,21.76-21.71Zm0,41.88c11.11,0,20.06-8.56,20.06-20.18s-8.95-20.18-20.06-20.18-20.06,8.56-20.06,20.18,8.95,20.18,20.06,20.18Z"/><path class="b" d="M270.79,4.53c0,2.53-2.12,4.53-4.68,4.53s-4.59-2-4.59-4.53,2.03-4.53,4.59-4.53,4.68,2,4.68,4.53Z"/><path class="b" d="M56.79,4.66c0,2.53-2.12,4.53-4.68,4.53s-4.59-2-4.59-4.53S49.55,.13,52.11,.13s4.68,2,4.68,4.53Z"/></svg>