<?xml version="1.0" encoding="UTF-8"?><svg id="a" xmlns="http://www.w3.org/2000/svg" viewBox="0 0 410.37 92.6"><defs><style>.b{fill:#fff;}</style></defs><path class="b" d="M410.12,62.56c0,7.03-7.65,11.93-15.67,11.93-6.49,0-14.87-3.46-15.6-11.53h2.19c1.31,8.19,9.18,9.98,13.34,9.98,6.78,0,13.56-4.04,13.56-10.15,0-7.84-8.6-9.46-13.78-10.55-4.74-.93-14.14-2.72-14.14-10.73-.22-7.09,6.85-11.13,14.65-11.13,6.34,0,12.76,2.94,13.92,9.92h-2.18c-.81-3.4-3.21-8.36-11.89-8.36-6.85,0-12.31,3.69-12.31,9.28-.08,6.75,7.07,8.42,14.5,9.92,2.63,.58,13.41,2.13,13.41,11.42Z"/><polygon class="b" points="367.77 71.44 367.77 31.07 369.96 31.07 369.96 73.74 367.19 73.74 329.72 32.8 329.58 32.8 329.58 73.74 327.39 73.74 327.39 31.07 330.67 31.07 367.63 71.44 367.77 71.44"/><path class="b" d="M297.02,30.87c12.02,0,21.77,9.13,21.77,21.71s-9.75,21.7-21.77,21.7-21.76-9.12-21.76-21.7,9.75-21.71,21.76-21.71Zm20.07,21.71c0-11.62-8.96-20.18-20.07-20.18s-20.06,8.56-20.06,20.18,8.96,20.17,20.06,20.17,20.07-8.55,20.07-20.17Z"/><path class="b" d="M266.36,.25c2.56,0,4.68,2,4.68,4.53s-2.12,4.53-4.68,4.53-4.59-2.01-4.59-4.53,2.04-4.53,4.59-4.53Z"/><rect class="b" x="264.88" y="16.02" width="2.18" height="76.33"/><polygon class="b" points="225.92 72.19 256.83 72.19 256.83 73.74 222.35 73.74 251.72 32.63 221.33 32.63 221.33 31.07 255.3 31.07 225.92 72.19"/><polygon class="b" points="213.09 71.44 213.09 31.07 215.28 31.07 215.28 73.74 212.51 73.74 175.04 32.8 174.9 32.8 174.9 73.74 172.71 73.74 172.71 31.07 175.99 31.07 212.95 71.44 213.09 71.44"/><polygon class="b" points="135.03 51.49 162.43 51.49 162.43 53.04 135.03 53.04 135.03 72.19 162.43 72.19 162.43 73.74 132.84 73.74 132.84 31.07 162.43 31.07 162.43 32.63 135.03 32.63 135.03 51.49"/><polygon class="b" points="121.54 31.07 121.54 73.74 119.36 73.74 119.36 32.8 119.21 32.8 93.84 73.74 92.61 73.74 67.17 32.8 67.02 32.8 67.02 73.74 64.83 73.74 64.83 31.07 68.33 31.07 93.26 70.98 118.12 31.07 121.54 31.07"/><path class="b" d="M52.36,.38c2.56,0,4.68,2,4.68,4.53s-2.12,4.53-4.68,4.53-4.59-2.01-4.59-4.53S49.8,.38,52.36,.38Z"/><rect class="b" x="51.35" y="16.02" width="2.19" height="76.33"/><path class="b" d="M15.49,73.74H.25V31.07H15.49c16.98,0,27.19,7.9,27.19,21.34s-10.21,21.33-27.19,21.33ZM2.44,32.63v39.56H15.49c15.6,0,25-7.33,25-19.67s-9.19-19.89-25-19.89H2.44Z"/></svg>